<svg id="Calque_1" data-name="Calque 1" xmlns="http://www.w3.org/2000/svg" xmlns:xlink="http://www.w3.org/1999/xlink" viewBox="0 0 1920 1080"><defs><style>.cls-1{fill:url(#Dégradé_sans_nom_11);}.cls-2{fill:url(#Dégradé_sans_nom_7);}.cls-3{fill:#fff;}</style><linearGradient id="Dégradé_sans_nom_11" y1="540" x2="1018" y2="540" gradientUnits="userSpaceOnUse"><stop offset="0" stop-color="#ff8a00"/><stop offset="1" stop-color="#ffdc00"/></linearGradient><linearGradient id="Dégradé_sans_nom_7" x1="880" y1="540" x2="1920" y2="540" gradientUnits="userSpaceOnUse"><stop offset="0" stop-color="#ff8a00"/><stop offset="1" stop-color="red"/></linearGradient></defs><path class="cls-1" d="M916,1080H0V0H1018C1018,360,916,720,916,1080Z"/><polygon class="cls-2" points="880 1080 1920 1080 1920 0 1045 0 880 1080"/><path d="M838.44,1086.5l14.94-80.7-28.75,1.06L890.77,835.5H864.7l56.81-204.34-6.43.33-11,.57-.12.37-4.64.07h-1.05a8.84,8.84,0,0,1-.91,0l-7.25.48,1.5-4.55a7,7,0,0,1-.49-2.2,6.57,6.57,0,0,1,3.06-5.74c8-25.88,16.81-68.75,25.3-110.26,8.06-39.37,16.36-79.93,24.18-106.7H889.06l63.33-179H894.26l76.29-231H1083L1016.9,151.76l73.62,2L1024.87,329.8l71.08-5.08-95.3,198.64,75.59-1-6.27,9.77c-3.85,8.63-81.52,183.89-100.09,228.39h30.7L928.7,955.17l31-1.07L884,1086.5Z"/><path class="cls-3" d="M1073.25,0l-66,158,74,2-66,177,70-5-95,198,74-1c-.29.45-96.89,218.61-104,238h31l-72,195,29-1-68,119h-34l15-81-27,1,66-171h-27l57-204.83c1.67-.11,2.23-.18,1-.18h-1l0,.17c-5.8.38-25.08,1.28-30.89,1.66,16.9-51.61,36.29-177.39,53.18-228.83H898.25l63.34-179H903.25l72-218h98m-9,529h0M899.31,625.83l-.06.17h-1c-1.22,0-.66-.07,1-.18M1092.77-13H965.85l-2.94,8.92-72,218L885.27,231H943.2L886,392.66,879.86,410h55.25c-7.2,26.69-14.69,63.28-22,98.9-8.26,40.39-16.8,82.08-24.58,107.81a13.2,13.2,0,0,0-3.91,9.7,12.89,12.89,0,0,0,.19,1.85L881,640.07,897.38,639l.91,0h1.15l9.28-.13.18-.55,3.93-.21-52.1,187.41L856.14,842H881.3L822.12,995.32l-7.1,18.4,19.71-.73,10.78-.4-12,65L830.62,1093h57.17l3.75-6.55,68-119,11.57-20.25L947.8,948l-9.65.33,65.3-176.84,6.46-17.5H979.68c23.09-54.15,90.89-207.25,96-218.8l12.47-19.52-24.11.32-53,.72L1097,337.62l9.69-20.18L1084.32,319l-49.82,3.56,58.93-158,6.36-17-18.19-.5-55-1.48L1085.25,5l7.52-18Z"/></svg>
